<?xml version="1.0" standalone="no"?><!DOCTYPE svg PUBLIC "-//W3C//DTD SVG 1.1//EN" "http://www.w3.org/Graphics/SVG/1.1/DTD/svg11.dtd"><svg t="1600854996764" class="icon" viewBox="0 0 1024 1024" version="1.1" xmlns="http://www.w3.org/2000/svg" p-id="9831" data-spm-anchor-id="a313x.7781069.0.i21" xmlns:xlink="http://www.w3.org/1999/xlink" width="200" height="200"><defs><style type="text/css"></style></defs><path d="M791.272727 1000.727273H232.727273a81.454545 81.454545 0 0 1-81.454546-81.454546v-465.454545A81.454545 81.454545 0 0 1 232.727273 372.363636h558.545454a81.454545 81.454545 0 0 1 81.454546 81.454546v465.454545A81.454545 81.454545 0 0 1 791.272727 1000.727273zM232.727273 442.181818a11.636364 11.636364 0 0 0-11.636364 11.636364v465.454545a11.636364 11.636364 0 0 0 11.636364 11.636364h558.545454a11.636364 11.636364 0 0 0 11.636364-11.636364v-465.454545a11.636364 11.636364 0 0 0-11.636364-11.636364z" fill="#515151" p-id="9832" data-spm-anchor-id="a313x.7781069.0.i23" class=""></path><path d="M477.090909 570.181818m34.909091 0l0 0q34.909091 0 34.909091 34.909091l0 162.909091q0 34.909091-34.909091 34.909091l0 0q-34.909091 0-34.909091-34.909091l0-162.909091q0-34.909091 34.909091-34.909091Z" fill="#1be128" p-id="9833" data-spm-anchor-id="a313x.7781069.0.i22" class="selected"></path><path d="M325.818182 442.181818a34.909091 34.909091 0 0 1-34.909091-34.909091v-162.909091a221.090909 221.090909 0 0 1 412.392727-110.778181 216.901818 216.901818 0 0 1 23.272727 61.207272 477.556364 477.556364 0 0 1 5.585455 72.843637 34.909091 34.909091 0 0 1-69.818182 0 448.930909 448.930909 0 0 0-2.792727-58.181819 157.323636 157.323636 0 0 0-16.523636-41.658181A151.272727 151.272727 0 0 0 360.727273 244.363636v162.909091A34.909091 34.909091 0 0 1 325.818182 442.181818z" fill="#515151" p-id="9834" data-spm-anchor-id="a313x.7781069.0.i24" class=""></path></svg>