<?xml version="1.0" standalone="no"?><!DOCTYPE svg PUBLIC "-//W3C//DTD SVG 1.1//EN" "http://www.w3.org/Graphics/SVG/1.1/DTD/svg11.dtd"><svg t="1601120377640" class="icon" viewBox="0 0 1024 1024" version="1.1" xmlns="http://www.w3.org/2000/svg" p-id="2697" data-spm-anchor-id="a313x.7781069.0.i1" xmlns:xlink="http://www.w3.org/1999/xlink" width="200" height="200"><defs><style type="text/css"></style></defs><path d="M524.8 151c96.7 0 175.4 78.7 175.4 175.4s-78.7 175.4-175.4 175.4S349.4 423 349.4 326.3 428.1 151 524.8 151m0-54.8c-127.1 0-230.2 103-230.2 230.2 0 127.1 103 230.2 230.2 230.2 127.1 0 230.2-103 230.2-230.2 0-127.2-103.1-230.2-230.2-230.2z" fill="#dbdbdb" p-id="2698" data-spm-anchor-id="a313x.7781069.0.i0" class=""></path><path d="M155.6 928.3c-15.1 0-27.4-12.3-27.4-27.4 0-218.7 177.9-396.5 396.5-396.5 15.1 0 27.4 12.3 27.4 27.4 0 15.1-12.3 27.4-27.4 27.4C336.3 559.1 183 712.5 183 900.9c0 15.1-12.2 27.4-27.4 27.4z" fill="#dbdbdb" p-id="2699" data-spm-anchor-id="a313x.7781069.0.i2" class=""></path><path d="M868.4 776.6H607.7c-15.1 0-27.4-12.3-27.4-27.4s12.3-27.4 27.4-27.4h260.7c15.1 0 27.4 12.3 27.4 27.4s-12.3 27.4-27.4 27.4z" fill="#1afa29" p-id="2700" data-spm-anchor-id="a313x.7781069.0.i3" class="selected"></path><path d="M738 906.9c-15.1 0-27.4-12.3-27.4-27.4V618.9c0-15.1 12.3-27.4 27.4-27.4s27.4 12.3 27.4 27.4v260.7c0 15.1-12.2 27.3-27.4 27.3z" fill="#1afa29" p-id="2701" data-spm-anchor-id="a313x.7781069.0.i4" class="selected"></path></svg>