<?xml version="1.0" standalone="no"?><!DOCTYPE svg PUBLIC "-//W3C//DTD SVG 1.1//EN" "http://www.w3.org/Graphics/SVG/1.1/DTD/svg11.dtd"><svg t="1600865341310" class="icon" viewBox="0 0 1024 1024" version="1.1" xmlns="http://www.w3.org/2000/svg" p-id="1155" xmlns:xlink="http://www.w3.org/1999/xlink" width="200" height="200"><defs><style type="text/css"></style></defs><path d="M512 1006.933333C305.493333 1006.933333 136.533333 837.973333 136.533333 631.466667c0-136.533333 73.386667-261.12 192.853334-327.68 46.08-121.173333 22.186667-226.986667 22.186666-226.986667L337.92 15.36l59.733333 22.186667c104.106667 37.546667 203.093333 157.013333 256 271.36 20.48-44.373333 32.426667-78.506667 32.426667-80.213334l20.48-58.026666 39.253333 47.786666c68.266667 85.333333 88.746667 153.6 98.986667 233.813334C872.106667 506.88 887.466667 568.32 887.466667 631.466667c0 206.506667-168.96 375.466667-375.466667 375.466666zM424.96 128c1.706667 52.906667-3.413333 129.706667-37.546667 211.626667l-5.12 11.946666-10.24 6.826667c-102.4 52.906667-167.253333 157.013333-167.253333 273.066667 0 168.96 138.24 307.2 307.2 307.2s307.2-138.24 307.2-307.2c0-52.906667-13.653333-105.813333-40.96-151.893334l-3.413333-6.826666v-6.826667c-5.12-56.32-17.066667-102.4-49.493334-155.306667-11.946667 29.013333-27.306667 64.853333-47.786666 98.986667l-39.253334 73.386667-22.186666-80.213334C588.8 307.2 510.293333 187.733333 424.96 128z" fill="#d81e06" p-id="1156"></path><path d="M512 870.4c-88.746667 0-162.133333-71.68-162.133333-162.133333h68.266666c0 51.2 40.96 93.866667 93.866667 93.866666s93.866667-40.96 93.866667-93.866666h68.266666c-1.706667 88.746667-73.386667 162.133333-162.133333 162.133333z" fill="#d81e06" p-id="1157"></path></svg>