<?xml version="1.0" standalone="no"?><!DOCTYPE svg PUBLIC "-//W3C//DTD SVG 1.1//EN" "http://www.w3.org/Graphics/SVG/1.1/DTD/svg11.dtd"><svg t="1601122627950" class="icon" viewBox="0 0 1024 1024" version="1.1" xmlns="http://www.w3.org/2000/svg" p-id="14974" xmlns:xlink="http://www.w3.org/1999/xlink" width="200" height="200"><defs><style type="text/css"></style></defs><path d="M605.5 563.7m-291.3 0a291.3 291.3 0 1 0 582.6 0 291.3 291.3 0 1 0-582.6 0Z" fill="#106F4F" opacity=".3" p-id="14975"></path><path d="M801.2 801.5H236.4c-14.6 0-27.3-10.1-30.1-24l-62-301.5c-2.5-12.2 2.8-24.4 13.6-31.1 11.2-6.9 25.6-6.1 35.9 2l73.3 57.9v-152c0-12.3 7.5-23.1 19.2-27.7 12.1-4.8 25.6-1.7 34.4 7.7l98.8 106.5 71.6-220c4.1-12.7 16.2-21.1 29.9-20.9 13.7 0.3 25.4 9.1 29 21.9l64 225.9 104.8-116.8c8.7-9.7 22.2-12.9 34.5-8.2 11.8 4.5 19.5 15.4 19.5 27.8v153.6l71-55.8c10.3-8.1 24.7-8.9 35.8-2 10.8 6.7 16.1 18.9 13.6 31.1l-61.9 301.6c-2.9 13.9-15.5 24-30.1 24z m-555.8-32z m-1.6-8h550l55-267.7-65.9 51.8c-9.5 7.5-22.2 8.8-33.1 3.5-10.5-5.1-17-15.3-17-26.7V373.8L633 485.1c-7.5 8.4-19.1 12-30.3 9.4-10.9-2.5-19.5-10.6-22.5-21.1l-60.3-213-67.1 206.2c-3.3 10.2-11.7 17.8-22.5 20.1-10.8 2.4-22.2-1.1-29.6-9.1l-93.4-100.7v147.6c0 11.4-6.5 21.7-17 26.8-10.8 5.2-23.8 3.8-33.1-3.5L189 494l54.8 267.5z" fill="#F75C3E" p-id="14976"></path><path d="M731.7 720.4h-0.1l-425-2.4c-11-0.1-19.9-9.1-19.9-20.1 0.1-11 9-19.9 20-19.9h0.1l425 2.4c11 0.1 19.9 9.1 19.9 20.1-0.1 11-9 19.9-20 19.9z" fill="#F75C3E" p-id="14977"></path><path d="M522 199m-78.5 0a78.5 78.5 0 1 0 157 0 78.5 78.5 0 1 0-157 0Z" fill="#F75C3E" p-id="14978"></path></svg>