<?xml version="1.0" standalone="no"?><!DOCTYPE svg PUBLIC "-//W3C//DTD SVG 1.1//EN" "http://www.w3.org/Graphics/SVG/1.1/DTD/svg11.dtd"><svg t="1601122422999" class="icon" viewBox="0 0 1024 1024" version="1.1" xmlns="http://www.w3.org/2000/svg" p-id="5592" data-spm-anchor-id="a313x.7781069.0.i12" xmlns:xlink="http://www.w3.org/1999/xlink" width="200" height="200"><defs><style type="text/css"></style></defs><path d="M508.493 897.222c-51.985 0-102.402-10.176-149.851-30.245-45.842-19.39-87.018-47.153-122.384-82.519-35.366-35.366-63.129-76.542-82.519-122.385-20.069-47.447-30.245-97.864-30.245-149.85 0-51.986 10.176-102.404 30.245-149.853 19.39-45.843 47.153-87.019 82.519-122.384 35.366-35.366 76.542-63.129 122.384-82.519 47.448-20.069 97.866-30.245 149.851-30.245s102.402 10.176 149.852 30.245c45.843 19.39 87.019 47.153 122.385 82.519s63.13 76.542 82.521 122.384c20.069 47.449 30.245 97.867 30.245 149.853 0 51.984-10.176 102.401-30.245 149.85-19.391 45.843-47.154 87.019-82.521 122.384-35.366 35.366-76.543 63.13-122.385 82.52-47.449 20.07-97.866 30.245-149.852 30.245z" fill="#ffffff" p-id="5593" data-spm-anchor-id="a313x.7781069.0.i10" class=""></path><path d="M508.494 152.224c48.621 0 95.762 9.511 140.112 28.27 42.863 18.129 81.368 44.093 114.446 77.171s59.043 71.583 77.172 114.445c18.759 44.35 28.27 91.491 28.27 140.113 0 48.621-9.512 95.761-28.27 140.111-18.13 42.862-44.094 81.367-77.172 114.445-33.078 33.078-71.584 59.042-114.447 77.172-44.35 18.759-91.491 28.27-140.112 28.27-48.622 0-95.762-9.511-140.113-28.27-42.862-18.129-81.367-44.094-114.445-77.172-33.078-33.078-59.042-71.583-77.171-114.445-18.758-44.35-28.27-91.49-28.27-140.112s9.511-95.763 28.27-140.114c18.129-42.862 44.093-81.367 77.171-114.445 33.078-33.078 71.583-59.042 114.445-77.171 44.351-18.757 91.492-28.268 140.114-28.268m0-50c-226.436 0-409.998 183.562-409.998 410 0 226.434 183.562 409.998 409.998 409.998 226.434 0 410.002-183.564 410.002-409.998-0.001-226.438-183.568-410-410.002-410z" fill="#e6e6e6" p-id="5594"></path><path d="M363.283 435.348c33.022 0 59.792-30.593 59.792-68.333 0-37.739-26.77-68.333-59.792-68.333-33.02 0-59.792 30.595-59.792 68.333 0 37.74 26.772 68.333 59.792 68.333z m290.415 0c33.022 0 59.792-30.593 59.792-68.333 0-37.739-26.77-68.333-59.792-68.333-33.02 0-59.79 30.595-59.79 68.333 0 37.74 26.77 68.333 59.79 68.333z m25.955 85.417H337.356c-21.294 0-37.303 19.137-33.203 39.703 18.785 94.218 103.134 165.297 204.353 165.297 101.215 0 185.568-71.079 204.351-165.297 4.097-20.567-11.912-39.703-33.204-39.703z" fill="#e6e6e6" p-id="5595" data-spm-anchor-id="a313x.7781069.0.i11" class="selected"></path></svg>