<?xml version="1.0" standalone="no"?><!DOCTYPE svg PUBLIC "-//W3C//DTD SVG 1.1//EN" "http://www.w3.org/Graphics/SVG/1.1/DTD/svg11.dtd"><svg t="1601122516747" class="icon" viewBox="0 0 1024 1024" version="1.1" xmlns="http://www.w3.org/2000/svg" p-id="12348" xmlns:xlink="http://www.w3.org/1999/xlink" width="200" height="200"><defs><style type="text/css"></style></defs><path d="M503 117c-190.9 0-324.9 317.3-324.9 489.1C178.1 782.2 326.9 931 503 931s324.9-148.8 324.9-324.9c0-171.8-134-489.1-324.9-489.1z m0 766.5c-150.4 0-277.4-127-277.4-277.4 0-147.3 119.9-441.6 277.4-441.6s277.4 294.3 277.4 441.6c0 150.4-127.1 277.4-277.4 277.4z" fill="#1afa29" p-id="12349" data-spm-anchor-id="a313x.7781069.0.i19" class=""></path><path d="M404.8 353.9m-42.8 0a42.8 42.8 0 1 0 85.6 0 42.8 42.8 0 1 0-85.6 0Z" fill="#f4ea2a" p-id="12350" data-spm-anchor-id="a313x.7781069.0.i18" class="selected"></path><path d="M362 594.5m-70.5 0a70.5 70.5 0 1 0 141 0 70.5 70.5 0 1 0-141 0Z" fill="#f4ea2a" p-id="12351" data-spm-anchor-id="a313x.7781069.0.i17" class="selected"></path><path d="M615.3 690.7m-105.4 0a105.4 105.4 0 1 0 210.8 0 105.4 105.4 0 1 0-210.8 0Z" fill="#f4ea2a" p-id="12352" data-spm-anchor-id="a313x.7781069.0.i16" class="selected"></path></svg>