<?xml version="1.0" standalone="no"?><!DOCTYPE svg PUBLIC "-//W3C//DTD SVG 1.1//EN" "http://www.w3.org/Graphics/SVG/1.1/DTD/svg11.dtd"><svg t="1600828973843" class="icon" viewBox="0 0 1024 1024" version="1.1" xmlns="http://www.w3.org/2000/svg" p-id="6324" xmlns:xlink="http://www.w3.org/1999/xlink" width="200" height="200"><defs><style type="text/css"></style></defs><path d="M512 128c-211.7 0-384 172.3-384 384s172.3 384 384 384 384-172.3 384-384-172.3-384-384-384z m0 717.4c-183.8 0-333.4-149.6-333.4-333.4S328.2 178.6 512 178.6 845.4 328.2 845.4 512 695.8 845.4 512 845.4z" p-id="6325"></path><path d="M357.1 427.2c-19.3-19.3-19.3-50.8 0-70.1 19.3-19.3 50.8-19.3 70.1 0l108 108c19.3 19.3 19.3 50.8 0 70.1-9.9 9.9-9.9 25.9 0 35.8 4.9 4.9 11.4 7.4 17.9 7.4 6.5 0 13-2.5 17.9-7.4 39.1-39.1 39.1-102.6 0-141.7l-108-108c-19-18.9-44.1-29.3-70.9-29.3-26.8 0-51.9 10.4-70.8 29.3S292 365.4 292 392.1c0 26.8 10.4 51.9 29.3 70.8l53.6 53.6c9.9 9.9 25.9 9.9 35.8 0 9.9-9.9 9.9-25.9 0-35.8l-53.6-53.5z" p-id="6326"></path><path d="M649.1 507.4c-9.9-9.9-25.9-9.9-35.8 0-9.9 9.9-9.9 25.9 0 35.8l53.6 53.6c19.3 19.3 19.3 50.8 0 70.1-19.3 19.3-50.8 19.3-70.1 0l-108-108c-19.3-19.3-19.3-50.8 0-70.1 9.9-9.9 9.9-25.9 0-35.8-9.9-9.9-25.9-9.9-35.8 0-18.9 18.9-29.3 44.1-29.3 70.8 0 26.8 10.4 51.9 29.3 70.8l108 108c18.9 18.9 44.1 29.3 70.8 29.3 26.8 0 51.9-10.4 70.8-29.3s29.3-44.1 29.3-70.8c0-26.8-10.4-51.9-29.3-70.8l-53.5-53.6z" p-id="6327"></path></svg>